<svg width="34" height="34" viewBox="0 0 34 34" fill="none" xmlns="http://www.w3.org/2000/svg">
<path d="M0 6.87273C0 3.07702 3.07702 0 6.87273 0H26.2852C30.0809 0 33.1579 3.07702 33.1579 6.87273V26.2852C33.1579 30.0809 30.0809 33.1579 26.2852 33.1579H6.87273C3.07702 33.1579 0 30.0809 0 26.2852V6.87273Z" fill="#CEDDE6"/>
<g clip-path="url(#clip0_3_308)" filter="url(#filter0_i_3_308)">
<path d="M20.5928 17.7686L21.0824 14.5788H18.0216V12.5089C18.0216 11.6364 18.449 10.7854 19.82 10.7854H21.2113V8.06986C21.2113 8.06986 19.9489 7.85449 18.7415 7.85449C16.221 7.85449 14.5735 9.38245 14.5735 12.1481V14.5794H11.7715V17.7691H14.5735V25.4805H18.0216V17.7691L20.5928 17.7686Z" fill="#09369C"/>
</g>
<defs>
<filter id="filter0_i_3_308" x="7.67871" y="7.85352" width="17.626" height="22.047" filterUnits="userSpaceOnUse" color-interpolation-filters="sRGB">
<feFlood flood-opacity="0" result="BackgroundImageFix"/>
<feBlend mode="normal" in="SourceGraphic" in2="BackgroundImageFix" result="shape"/>
<feColorMatrix in="SourceAlpha" type="matrix" values="0 0 0 0 0 0 0 0 0 0 0 0 0 0 0 0 0 0 127 0" result="hardAlpha"/>
<feOffset dy="4.42105"/>
<feGaussianBlur stdDeviation="8.28947"/>
<feComposite in2="hardAlpha" operator="arithmetic" k2="-1" k3="1"/>
<feColorMatrix type="matrix" values="0 0 0 0 0 0 0 0 0 0 0 0 0 0 0 0 0 0 0.2 0"/>
<feBlend mode="normal" in2="shape" result="effect1_innerShadow_3_308"/>
</filter>
<clipPath id="clip0_3_308">
<rect width="17.626" height="17.626" fill="white" transform="translate(7.67871 7.85352)"/>
</clipPath>
</defs>
</svg>
