<svg width="34" height="34" viewBox="0 0 34 34" fill="none" xmlns="http://www.w3.org/2000/svg">
<path d="M0.631836 6.87273C0.631836 3.07702 3.70886 0 7.50456 0H26.917C30.7127 0 33.7897 3.07702 33.7897 6.87273V26.2852C33.7897 30.0809 30.7127 33.1579 26.917 33.1579H7.50456C3.70886 33.1579 0.631836 30.0809 0.631836 26.2852V6.87273Z" fill="#CEDDE6"/>
<g filter="url(#filter0_i_3_305)">
<path d="M13.9819 8.97559C11.5177 8.97559 9.5127 10.9818 9.5127 13.4466V19.8321C9.5127 22.2966 11.5189 24.3019 13.9837 24.3019H20.3692C22.8337 24.3019 24.839 22.2957 24.839 19.8309V13.4448C24.839 10.9806 22.8328 8.97559 20.368 8.97559H13.9819ZM21.7737 11.4278C22.1122 11.4278 22.3868 11.7024 22.3868 12.0408C22.3868 12.3793 22.1122 12.6539 21.7737 12.6539C21.4353 12.6539 21.1607 12.3793 21.1607 12.0408C21.1607 11.7024 21.4353 11.4278 21.7737 11.4278ZM17.1759 12.6539C19.3736 12.6539 21.1607 14.4409 21.1607 16.6387C21.1607 18.8365 19.3733 20.6236 17.1759 20.6236C14.9781 20.6236 13.191 18.8362 13.191 16.6387C13.191 14.4413 14.9781 12.6539 17.1759 12.6539ZM17.1759 13.88C15.6521 13.88 14.4171 15.115 14.4171 16.6387C14.4171 18.1625 15.6521 19.3975 17.1759 19.3975C18.6996 19.3975 19.9346 18.1625 19.9346 16.6387C19.9346 15.115 18.6996 13.88 17.1759 13.88Z" fill="#09369C"/>
</g>
<defs>
<filter id="filter0_i_3_305" x="7.3667" y="6.83008" width="19.6177" height="24.0387" filterUnits="userSpaceOnUse" color-interpolation-filters="sRGB">
<feFlood flood-opacity="0" result="BackgroundImageFix"/>
<feBlend mode="normal" in="SourceGraphic" in2="BackgroundImageFix" result="shape"/>
<feColorMatrix in="SourceAlpha" type="matrix" values="0 0 0 0 0 0 0 0 0 0 0 0 0 0 0 0 0 0 127 0" result="hardAlpha"/>
<feOffset dy="4.42105"/>
<feGaussianBlur stdDeviation="8.28947"/>
<feComposite in2="hardAlpha" operator="arithmetic" k2="-1" k3="1"/>
<feColorMatrix type="matrix" values="0 0 0 0 0 0 0 0 0 0 0 0 0 0 0 0 0 0 0.2 0"/>
<feBlend mode="normal" in2="shape" result="effect1_innerShadow_3_305"/>
</filter>
</defs>
</svg>
