<svg width="34" height="34" viewBox="0 0 34 34" fill="none" xmlns="http://www.w3.org/2000/svg">
<path d="M0.420898 6.87273C0.420898 3.07702 3.49792 0 7.29363 0H26.7061C30.5018 0 33.5788 3.07702 33.5788 6.87273V26.2852C33.5788 30.0809 30.5018 33.1579 26.7061 33.1579H7.29363C3.49792 33.1579 0.420898 30.0809 0.420898 26.2852V6.87273Z" fill="#CEDDE6"/>
<g clip-path="url(#clip0_3_307)" filter="url(#filter0_i_3_307)">
<path fill-rule="evenodd" clip-rule="evenodd" d="M9.0083 9.938C9.0083 9.57999 9.15052 9.23665 9.40367 8.9835C9.65681 8.73035 10.0002 8.58814 10.3582 8.58814H23.8142C23.9916 8.58785 24.1673 8.62255 24.3313 8.69027C24.4953 8.75799 24.6443 8.85738 24.7698 8.98277C24.8954 9.10815 24.9949 9.25706 25.0628 9.42097C25.1307 9.58489 25.1656 9.76058 25.1655 9.938V23.394C25.1657 23.5715 25.1309 23.7472 25.0631 23.9112C24.9953 24.0752 24.8958 24.2242 24.7704 24.3497C24.645 24.4752 24.496 24.5748 24.332 24.6427C24.1681 24.7105 23.9924 24.7454 23.8149 24.7453H10.3582C10.1808 24.7453 10.0052 24.7104 9.84142 24.6425C9.6776 24.5746 9.52876 24.4751 9.40341 24.3497C9.27805 24.2243 9.17864 24.0754 9.11084 23.9115C9.04305 23.7477 9.0082 23.5721 9.0083 23.3947V9.938ZM15.4036 14.7484H17.5914V15.8471C17.9072 15.2155 18.7151 14.6471 19.9291 14.6471C22.2565 14.6471 22.808 15.9051 22.808 18.2134V22.4892H20.4527V18.7393C20.4527 17.4247 20.1369 16.6829 19.335 16.6829C18.2223 16.6829 17.7596 17.4827 17.7596 18.7393V22.4892H15.4036V14.7484ZM11.3643 22.3886H13.7203V14.6471H11.3643V22.3879V22.3886ZM14.0574 12.1222C14.0619 12.3239 14.026 12.5245 13.9518 12.7121C13.8777 12.8998 13.7669 13.0708 13.6258 13.215C13.4847 13.3592 13.3162 13.4738 13.1302 13.5521C12.9442 13.6303 12.7445 13.6706 12.5427 13.6706C12.3409 13.6706 12.1412 13.6303 11.9552 13.5521C11.7692 13.4738 11.6007 13.3592 11.4596 13.215C11.3185 13.0708 11.2077 12.8998 11.1335 12.7121C11.0594 12.5245 11.0235 12.3239 11.028 12.1222C11.0367 11.7262 11.2001 11.3494 11.4832 11.0724C11.7663 10.7955 12.1466 10.6404 12.5427 10.6404C12.9387 10.6404 13.3191 10.7955 13.6022 11.0724C13.8853 11.3494 14.0487 11.7262 14.0574 12.1222Z" fill="#09369C"/>
</g>
<defs>
<filter id="filter0_i_3_307" x="8.27393" y="7.85352" width="17.626" height="22.047" filterUnits="userSpaceOnUse" color-interpolation-filters="sRGB">
<feFlood flood-opacity="0" result="BackgroundImageFix"/>
<feBlend mode="normal" in="SourceGraphic" in2="BackgroundImageFix" result="shape"/>
<feColorMatrix in="SourceAlpha" type="matrix" values="0 0 0 0 0 0 0 0 0 0 0 0 0 0 0 0 0 0 127 0" result="hardAlpha"/>
<feOffset dy="4.42105"/>
<feGaussianBlur stdDeviation="8.28947"/>
<feComposite in2="hardAlpha" operator="arithmetic" k2="-1" k3="1"/>
<feColorMatrix type="matrix" values="0 0 0 0 0 0 0 0 0 0 0 0 0 0 0 0 0 0 0.2 0"/>
<feBlend mode="normal" in2="shape" result="effect1_innerShadow_3_307"/>
</filter>
<clipPath id="clip0_3_307">
<rect width="17.626" height="17.626" fill="white" transform="translate(8.27393 7.85352)"/>
</clipPath>
</defs>
</svg>
