<svg width="185" height="62" viewBox="0 0 185 62" fill="none" xmlns="http://www.w3.org/2000/svg">
<path d="M87.6973 46.3041C85.6014 46.3041 83.6868 45.9511 81.9471 45.2514C80.2105 44.5485 78.7157 43.5562 77.4658 42.2713C76.2159 40.9864 75.2395 39.4757 74.5366 37.736C73.8337 35.9995 73.4839 34.0817 73.4839 31.9858C73.4839 29.9153 73.8337 28.0102 74.5366 26.2737C75.2395 24.5372 76.2159 23.0233 77.4658 21.7384C78.7157 20.4535 80.2073 19.458 81.9471 18.7551C83.6836 18.0522 85.6014 17.7024 87.6973 17.7024C89.7678 17.7024 91.6728 18.0554 93.4094 18.7551C95.1459 19.458 96.647 20.4503 97.9097 21.7384C99.1723 23.0233 100.152 24.534 100.855 26.2737C101.558 28.0102 101.908 29.9153 101.908 31.9858C101.908 34.0817 101.554 35.9963 100.855 37.736C100.152 39.4725 99.1691 40.9864 97.9097 42.2713C96.647 43.5562 95.1491 44.5517 93.4094 45.2514C91.6728 45.9543 89.7678 46.3041 87.6973 46.3041ZM87.6973 43.235C89.2907 43.235 90.7569 42.9487 92.0895 42.3794C93.4221 41.807 94.5829 41.0182 95.5721 40.0037C96.5612 38.9923 97.3213 37.8028 97.8588 36.432C98.3931 35.0644 98.6635 33.5823 98.6635 31.9858C98.6635 30.3924 98.3963 28.9135 97.8588 27.5586C97.3245 26.2005 96.5612 25.0111 95.5721 23.987C94.5829 22.9628 93.4253 22.1709 92.0895 21.6112C90.7569 21.0514 89.2907 20.7715 87.6973 20.7715C86.1039 20.7715 84.6377 21.0514 83.3051 21.6112C81.9725 22.1709 80.818 22.9628 79.8416 23.987C78.8652 25.0111 78.1051 26.2005 77.5548 27.5586C77.0078 28.9166 76.7343 30.3924 76.7343 31.9858C76.7343 33.5792 77.0078 35.0613 77.5548 36.432C78.1019 37.7996 78.8652 38.9923 79.8416 40.0037C80.818 41.015 81.9725 41.807 83.3051 42.3794C84.6377 42.9487 86.1039 43.235 87.6973 43.235Z" fill="#4472C9"/>
<path d="M108.978 54.3029C108.501 54.3029 108.11 54.1471 107.798 53.8386C107.489 53.5301 107.333 53.1357 107.333 52.6586V36.1267C107.356 34.2693 107.804 32.5932 108.672 31.0921C109.541 29.5909 110.714 28.4141 112.19 27.5586C113.666 26.703 115.32 26.2737 117.155 26.2737C119.06 26.2737 120.755 26.7094 122.243 27.5777C123.732 28.4459 124.909 29.6322 125.777 31.1302C126.645 32.6282 127.081 34.3202 127.081 36.1998C127.081 38.0795 126.671 39.7651 125.85 41.2536C125.029 42.742 123.916 43.9188 122.511 44.787C121.105 45.6553 119.524 46.091 117.762 46.091C116.264 46.091 114.906 45.7825 113.691 45.1623C112.476 44.5421 111.452 43.7121 110.619 42.6625V52.6618C110.619 53.1389 110.469 53.5301 110.174 53.8418C109.878 54.1471 109.48 54.3029 108.978 54.3029ZM117.155 43.1618C118.44 43.1618 119.588 42.8597 120.599 42.2522C121.611 41.6448 122.409 40.8115 122.991 39.7524C123.573 38.6933 123.865 37.5102 123.865 36.1998C123.865 34.8672 123.573 33.6714 122.991 32.6123C122.409 31.5532 121.611 30.7199 120.599 30.1125C119.588 29.505 118.449 29.2029 117.19 29.2029C115.927 29.2029 114.792 29.5114 113.78 30.1316C112.769 30.7517 111.977 31.585 111.404 32.6314C110.832 33.6778 110.549 34.8704 110.549 36.203C110.549 37.5134 110.835 38.6965 111.404 39.7556C111.977 40.8147 112.766 41.6479 113.78 42.2554C114.792 42.8597 115.918 43.1618 117.155 43.1618Z" fill="#4472C9"/>
<path d="M131.508 29.9502C131.079 29.9502 130.722 29.8198 130.436 29.5558C130.15 29.295 130.007 28.9611 130.007 28.5572C130.007 28.1278 130.15 27.7843 130.436 27.5203C130.722 27.2595 131.079 27.126 131.508 27.126H140.114C140.544 27.126 140.9 27.2564 141.186 27.5203C141.472 27.7811 141.615 28.1278 141.615 28.5572C141.615 28.9611 141.472 29.295 141.186 29.5558C140.9 29.8198 140.544 29.9502 140.114 29.9502H131.508ZM139.828 45.9478C138.613 45.9478 137.519 45.6457 136.543 45.0382C135.566 44.4308 134.806 43.6102 134.256 42.5734C133.706 41.5366 133.435 40.3534 133.435 39.0208V21.8464C133.435 21.3694 133.585 20.9782 133.881 20.6665C134.18 20.358 134.564 20.2021 135.041 20.2021C135.519 20.2021 135.91 20.358 136.218 20.6665C136.527 20.975 136.683 21.3694 136.683 21.8464V39.0208C136.683 40.0926 136.978 40.9736 137.576 41.6638C138.171 42.3539 138.922 42.6974 139.825 42.6974H140.932C141.336 42.6974 141.676 42.8533 141.949 43.1618C142.223 43.4703 142.36 43.8646 142.36 44.3417C142.36 44.8188 142.188 45.2036 141.841 45.5026C141.495 45.8015 141.049 45.9478 140.502 45.9478H139.828Z" fill="#4472C9"/>
<path d="M148.898 23.0233C148.304 23.0233 147.792 22.8102 147.362 22.3808C146.933 21.9515 146.72 21.4299 146.72 20.8097C146.72 20.1895 146.939 19.6743 147.381 19.2577C147.82 18.841 148.339 18.6343 148.933 18.6343C149.506 18.6343 150.011 18.8442 150.45 19.2577C150.889 19.6743 151.112 20.1927 151.112 20.8097C151.112 21.4299 150.899 21.9515 150.469 22.3808C150.04 22.8102 149.515 23.0233 148.898 23.0233ZM148.933 45.9479C148.434 45.9479 148.03 45.7921 147.718 45.4836C147.41 45.1751 147.254 44.7807 147.254 44.3068V28.0579C147.254 27.5586 147.41 27.1611 147.718 26.8621C148.027 26.5631 148.434 26.4168 148.933 26.4168C149.41 26.4168 149.802 26.5663 150.113 26.8621C150.422 27.1611 150.578 27.5586 150.578 28.0579V44.3036C150.578 44.7807 150.422 45.1719 150.113 45.4804C149.802 45.7921 149.41 45.9479 148.933 45.9479Z" fill="#4472C9"/>
<path d="M159.073 45.983C158.596 45.983 158.205 45.8271 157.893 45.5186C157.585 45.2101 157.429 44.8157 157.429 44.3419V28.0961C157.429 27.5968 157.585 27.1993 157.893 26.9003C158.202 26.6013 158.596 26.455 159.073 26.455C159.572 26.455 159.97 26.6045 160.269 26.9003C160.568 27.1993 160.714 27.5968 160.714 28.0961V44.3419C160.714 44.8189 160.565 45.2101 160.269 45.5186C159.973 45.8271 159.576 45.983 159.073 45.983ZM171.251 45.983C170.774 45.983 170.383 45.8271 170.071 45.5186C169.762 45.2101 169.607 44.8157 169.607 44.3419V34.0945C169.607 32.5233 169.209 31.3211 168.411 30.4878C167.612 29.6546 166.582 29.2379 165.323 29.2379C163.99 29.2379 162.89 29.6896 162.021 30.596C161.153 31.5024 160.717 32.6537 160.717 34.0595H158.574C158.596 32.536 158.924 31.1844 159.556 30.0076C160.186 28.8308 161.051 27.9085 162.145 27.2406C163.239 26.5759 164.477 26.242 165.86 26.242C167.24 26.242 168.462 26.5505 169.521 27.1706C170.58 27.7908 171.407 28.6877 172.002 29.8677C172.596 31.0444 172.895 32.4565 172.895 34.0977V44.345C172.895 44.8221 172.746 45.2133 172.45 45.5218C172.148 45.8271 171.75 45.983 171.251 45.983ZM183.356 45.983C182.879 45.983 182.487 45.8271 182.176 45.5186C181.867 45.2101 181.711 44.8157 181.711 44.3419V34.0945C181.711 32.5233 181.314 31.3211 180.516 30.4878C179.717 29.6546 178.687 29.2379 177.427 29.2379C176.095 29.2379 175.004 29.6959 174.161 30.6119C173.315 31.5278 172.892 32.7142 172.892 34.1644H170.106C170.128 32.5933 170.475 31.213 171.143 30.0235C171.808 28.834 172.736 27.9053 173.929 27.2374C175.118 26.5727 176.464 26.2388 177.965 26.2388C179.345 26.2388 180.566 26.5473 181.626 27.1675C182.685 27.7876 183.512 28.6845 184.106 29.8645C184.701 31.0412 185 32.4534 185 34.0945V44.3419C185 44.8189 184.851 45.2101 184.555 45.5186C184.253 45.8271 183.855 45.983 183.356 45.983Z" fill="#4472C9"/>
<path d="M26.7095 5.91235C13.0622 5.91235 2.00065 16.9739 2.00065 30.6212C2.00065 35.0516 3.17423 39.2052 5.21926 42.7991L1.45361 53.1578L7.93854 46.6729L12.6201 41.9881C10.1076 38.8808 8.60007 34.9244 8.60007 30.618C8.60007 20.6155 16.7102 12.5086 26.7095 12.5086C31.0158 12.5086 34.9723 14.0161 38.0796 16.5287L42.7644 11.8439C38.4453 8.1482 32.8382 5.91235 26.7095 5.91235Z" fill="url(#paint0_linear_3_489)"/>
<path d="M51.9651 8.08154L42.5541 17.4925L40.7985 19.2481C43.3111 22.3554 44.8186 26.3118 44.8186 30.6182C44.8186 40.6207 36.7085 48.7276 26.7092 48.7276C22.4029 48.7276 18.4464 47.2201 15.3359 44.7075L10.6543 49.3923C14.9733 53.0912 20.5773 55.327 26.7092 55.327C40.3565 55.327 51.418 44.2654 51.418 30.6182C51.418 26.0192 50.1586 21.7161 47.9673 18.03L51.9651 8.08154Z" fill="url(#paint1_linear_3_489)"/>
<path d="M0 61.586C3.23769 57.8935 6.47856 54.201 9.71625 50.5085C10.8167 51.5136 11.6722 52.2037 13.148 53.0911C13.3038 53.1865 13.4724 53.2501 13.6346 53.3232C9.08971 56.0775 4.54485 58.8318 0 61.586Z" fill="url(#paint2_linear_3_489)"/>
<path d="M53.3743 0C50.1366 3.69249 46.8957 7.38499 43.6581 11.0775C42.5767 10.0884 41.7021 9.38231 40.2264 8.49496C40.0705 8.39955 39.9019 8.33594 39.7397 8.26279C44.2846 5.50853 48.8295 2.75426 53.3743 0Z" fill="url(#paint3_linear_3_489)"/>
<path d="M18.3702 41.845L19.7632 41.0309C20.5742 41.5779 21.4393 42.0136 22.333 42.3412L22.4857 43.9505C22.5238 44.3544 22.8832 44.7392 23.284 44.8029L25.3195 45.1273C25.7202 45.1909 26.1814 44.9396 26.3436 44.5675L26.9956 43.0727C27.9497 43.0345 28.9006 42.885 29.8261 42.6211L30.9107 43.8487C31.1778 44.154 31.6962 44.2526 32.0588 44.0682L33.8971 43.1363C34.2597 42.9518 34.4855 42.4779 34.3964 42.0804L34.0402 40.4584C34.3964 40.1753 34.7367 39.8732 35.0675 39.5456C35.4174 39.1957 35.7418 38.83 36.0407 38.4515L37.6723 38.8173C38.0698 38.9063 38.5437 38.6837 38.7314 38.3211L39.6696 36.486C39.8541 36.1234 39.7555 35.6082 39.4533 35.3379L38.1907 34.2152C38.442 33.3087 38.5851 32.38 38.6232 31.4482L40.1848 30.7707C40.557 30.6085 40.8114 30.1474 40.7478 29.7466L40.4297 27.7112C40.3661 27.3104 39.9845 26.9479 39.5806 26.9097L37.8758 26.7411C37.5578 25.8792 37.1348 25.0491 36.6132 24.2636L37.4878 22.7847C37.6946 22.4348 37.6278 21.9132 37.3415 21.627L35.8849 20.1671C35.5986 19.8809 35.0771 19.8109 34.7272 20.0177L33.2451 20.8859C32.4659 20.3612 31.6358 19.9413 30.7771 19.6169L30.6117 17.909C30.5735 17.5051 30.211 17.1203 29.8102 17.0567L27.7748 16.7291C27.374 16.6655 26.9129 16.9167 26.7475 17.2888L26.0605 18.8504C25.1318 18.8854 24.2063 19.0254 23.3031 19.2703L22.1804 18.0044C21.9132 17.6991 21.3948 17.6005 21.0322 17.785L19.1939 18.7169C18.8314 18.9013 18.6055 19.3752 18.6914 19.7728L19.0476 21.4075C18.6691 21.7033 18.3034 22.0245 17.9535 22.3744C17.626 22.702 17.3238 23.0391 17.0408 23.3953L15.4156 23.0359C15.018 22.9468 14.5441 23.1727 14.3597 23.5321L13.4214 25.3672C13.237 25.7297 13.3324 26.2481 13.6377 26.5153L14.8622 27.6062C14.5982 28.5285 14.4455 29.4763 14.4042 30.4273L12.9062 31.0792C12.5341 31.2414 12.2796 31.7026 12.3432 32.1033L12.6613 34.1388C12.7249 34.5396 13.1066 34.9021 13.5105 34.9435L15.123 35.1025C15.4474 35.9962 15.8799 36.8581 16.4238 37.6723L15.6064 39.0622C15.3997 39.412 15.4664 39.9336 15.7527 40.223L17.2093 41.6828C17.4987 41.9818 18.0203 42.0518 18.3702 41.845ZM20.7396 22.8896C23.8469 20.7333 28.7989 20.3103 32.3005 22.9087C36.8009 26.2481 37.6469 33.649 33.4678 37.8727C30.1887 41.1867 24.6198 41.7401 20.7142 38.8682C16.5319 35.7927 15.4505 29.6639 18.5292 25.0968C18.9713 24.4735 19.6774 23.6275 20.7396 22.8896Z" fill="url(#paint4_linear_3_489)"/>
<path d="M14.8558 23.6594C14.9766 23.5385 15.1802 23.4686 15.3233 23.5035L17.2316 23.9234L17.4129 23.6976C17.6927 23.3509 17.9853 23.0201 18.2907 22.718C18.6182 22.3936 18.9713 22.0787 19.3434 21.7893L19.5724 21.608L19.1526 19.6838C19.1208 19.5375 19.1875 19.3403 19.3116 19.2163C19.3434 19.1845 19.3752 19.1622 19.4102 19.1432L21.2485 18.2113C21.4202 18.1222 21.7065 18.1795 21.8337 18.3226L23.1504 19.8079L23.4303 19.7315C24.2922 19.4962 25.1859 19.3594 26.0827 19.3276L26.3753 19.3181L27.18 17.4862C27.1991 17.4448 27.2277 17.4035 27.2659 17.3653C27.3835 17.2476 27.5648 17.1777 27.7048 17.1999L29.7403 17.5275C29.9311 17.5593 30.1314 17.7692 30.1505 17.9632L30.3445 19.9605L30.6181 20.0623C31.4577 20.3772 32.256 20.7874 32.9907 21.2804L33.2356 21.4458L34.9689 20.4281C35.1343 20.3295 35.4237 20.3676 35.5605 20.5044L37.0171 21.9642C37.1539 22.101 37.1889 22.3872 37.0903 22.5558L36.0662 24.2859L36.2284 24.5308C36.7245 25.2782 37.1316 26.0797 37.4401 26.913L37.5419 27.1865L39.5392 27.3837C39.7332 27.4028 39.9431 27.6 39.9717 27.794L40.2898 29.8294C40.312 29.9694 40.2453 30.1475 40.1244 30.2652C40.0862 30.3033 40.0417 30.3351 40.0004 30.3542L38.1684 31.1461L38.1557 31.4388C38.1207 32.3388 37.9808 33.2325 37.7391 34.0976L37.6627 34.3775L39.1448 35.6942C39.2911 35.8214 39.342 36.1076 39.2561 36.2794L38.3179 38.1145C38.302 38.1463 38.2766 38.1813 38.2448 38.2099C38.1207 38.334 37.9235 38.4007 37.7772 38.3658L35.8594 37.9364L35.6781 38.1686C35.3855 38.5407 35.0707 38.8937 34.7431 39.2213C34.4378 39.5234 34.107 39.8192 33.7571 40.0991L33.5282 40.2804L33.948 42.1855C33.9798 42.3286 33.913 42.529 33.789 42.653C33.7572 42.6848 33.7253 42.7071 33.6904 42.7261L31.8521 43.658C31.6803 43.7471 31.3941 43.693 31.2669 43.5467L29.9851 42.0964L29.7021 42.1759C28.8147 42.4272 27.8988 42.5735 26.9796 42.6085L26.687 42.6212L25.9174 44.3832C25.8983 44.4245 25.8697 44.469 25.8315 44.5072C25.7138 44.6249 25.5325 44.6917 25.3958 44.6694L23.3603 44.3418C23.1695 44.31 22.9723 44.1001 22.9532 43.9061L22.7719 42.0042L22.4952 41.9024C21.6238 41.5812 20.7937 41.1582 20.024 40.643L19.7823 40.4807L18.1348 41.4412C17.9663 41.5398 17.68 41.5017 17.5433 41.3649L16.0866 39.9051C15.9499 39.7683 15.9117 39.4789 16.0103 39.3135L16.9771 37.6692L16.8149 37.4243C16.3029 36.6547 15.8799 35.8246 15.565 34.9531L15.4632 34.6764L13.5613 34.4856C13.3673 34.4665 13.1574 34.2662 13.1288 34.0753L12.8108 32.0367C12.7885 31.8967 12.8585 31.7186 12.9761 31.5978C13.0143 31.5596 13.0588 31.5278 13.1002 31.5119L14.8653 30.7454L14.878 30.4528C14.9162 29.5368 15.0657 28.6241 15.3201 27.7431L15.3996 27.46L13.9557 26.1719C13.8094 26.0447 13.7585 25.7585 13.8444 25.5836L14.7826 23.7484C14.8017 23.723 14.824 23.688 14.8558 23.6594ZM18.4719 24.3782C18.3638 24.5245 18.2557 24.674 18.1507 24.8203C14.8049 29.4192 15.829 35.8914 20.4375 39.2467C24.5625 42.2491 30.1792 41.8102 33.7985 38.2067C35.9421 36.0695 37.0362 33.1148 36.804 30.0966C36.5687 27.0752 35.0293 24.3209 32.5772 22.5335C28.961 19.9001 24.095 19.8937 20.4693 22.5144C20.3198 22.6226 20.1735 22.7275 20.024 22.8357C19.7982 23.0138 19.5628 23.2173 19.3211 23.4527C18.9872 23.7675 18.7073 24.0856 18.4719 24.3782Z" fill="url(#paint5_linear_3_489)"/>
<path d="M18.1348 41.4442L19.7823 40.4837L20.024 40.6459C20.7905 41.1611 21.6206 41.5841 22.4952 41.9054L22.7719 42.0071L22.9532 43.909C22.9723 44.103 23.1695 44.313 23.3603 44.3448L25.3958 44.6724C25.5357 44.6946 25.7138 44.6278 25.8315 44.5101C25.8697 44.472 25.9015 44.4306 25.9174 44.3861L26.687 42.6241L26.9796 42.6114C27.8988 42.5764 28.8147 42.4301 29.7021 42.1789L29.9851 42.0994L31.2669 43.5496C31.3941 43.6959 31.6771 43.75 31.8521 43.661L33.6904 42.7291C33.7222 42.7132 33.7572 42.6877 33.789 42.6559C33.9098 42.5351 33.9798 42.3347 33.948 42.1884L33.5282 40.2833L33.7572 40.102C34.107 39.8222 34.4409 39.5264 34.7431 39.2243C35.0707 38.8967 35.3855 38.5436 35.6781 38.1715L35.8594 37.9393L37.7772 38.3687C37.9235 38.4005 38.1207 38.3369 38.2448 38.2129C38.2766 38.1811 38.302 38.1493 38.3179 38.1175L39.2561 36.2823C39.3452 36.1106 39.2911 35.8244 39.1448 35.6971L37.6627 34.3804L37.7391 34.1006C37.9776 33.2355 38.1175 32.3418 38.1557 31.4417L38.1684 31.1491L40.0004 30.3572C40.0417 30.3381 40.0862 30.3095 40.1244 30.2681C40.1753 30.2172 40.2135 30.1568 40.2421 30.0932C39.0971 30.1186 37.949 30.1155 36.8008 30.0837C36.8008 30.09 36.8008 30.0964 36.804 30.0996C37.0362 33.1178 35.9421 36.0724 33.7985 38.2097C30.1792 41.8163 24.5625 42.252 20.4375 39.2497C16.7704 36.5813 15.3742 31.9379 16.6432 27.8351C16.2997 27.7842 15.953 27.7333 15.6095 27.6824C15.5459 27.6792 15.4664 27.6729 15.3678 27.6633C15.3615 27.6633 15.3551 27.6633 15.3456 27.6602L15.3201 27.7524C15.0657 28.6334 14.9194 29.5462 14.878 30.4621L14.8653 30.7547L13.1002 31.5212C13.0588 31.5403 13.0143 31.5689 12.9761 31.6071C12.8585 31.7248 12.7885 31.9061 12.8108 32.046L13.1288 34.0847C13.1574 34.2755 13.3705 34.4759 13.5613 34.4949L15.4632 34.6858L15.565 34.9625C15.8799 35.8307 16.3029 36.664 16.8149 37.4337L16.9771 37.6786L16.0103 39.3228C15.9117 39.4914 15.9499 39.7776 16.0866 39.9144L17.5433 41.3742C17.68 41.5014 17.9694 41.5396 18.1348 41.4442Z" fill="url(#paint6_linear_3_489)"/>
<path d="M31.8841 36.2921C34.4507 33.7318 34.7879 29.7817 32.8891 26.8589L22.4478 37.2653C25.3642 39.1736 29.3143 38.8523 31.8841 36.2921Z" fill="url(#paint7_linear_3_489)"/>
<path d="M32.7936 27.6157C34.2503 30.3286 33.7668 33.754 31.5533 35.9612C29.3397 38.1684 25.9143 38.636 23.2046 37.1729L32.7936 27.6157Z" fill="url(#paint8_linear_3_489)"/>
<path d="M21.185 25.5581C18.6184 28.1183 18.2813 32.0684 20.18 34.9913L30.6214 24.5848C27.7018 22.6766 23.7517 22.9978 21.185 25.5581Z" fill="url(#paint9_linear_3_489)"/>
<path d="M20.2751 34.2342C18.8184 31.5212 19.3019 28.0959 21.5154 25.8887C23.729 23.6814 27.1544 23.2139 29.8641 24.6769L20.2751 34.2342Z" fill="url(#paint10_linear_3_489)"/>
<defs>
<linearGradient id="paint0_linear_3_489" x1="-12.4928" y1="53.3273" x2="39.6452" y2="-1.98755" gradientUnits="userSpaceOnUse">
<stop offset="0.00120948" stop-color="#09369C"/>
<stop offset="0.9975" stop-color="#91B3F3"/>
</linearGradient>
<linearGradient id="paint1_linear_3_489" x1="6.35672" y1="71.0946" x2="58.4947" y2="15.7798" gradientUnits="userSpaceOnUse">
<stop offset="0.00120948" stop-color="#09369C"/>
<stop offset="0.9975" stop-color="#91B3F3"/>
</linearGradient>
<linearGradient id="paint2_linear_3_489" x1="-0.399527" y1="64.7261" x2="51.7385" y2="9.41131" gradientUnits="userSpaceOnUse">
<stop offset="0.00120948" stop-color="#09369C"/>
<stop offset="0.9975" stop-color="#91B3F3"/>
</linearGradient>
<linearGradient id="paint3_linear_3_489" x1="-5.58649" y1="59.837" x2="46.5515" y2="4.52218" gradientUnits="userSpaceOnUse">
<stop offset="0.00120948" stop-color="#09369C"/>
<stop offset="0.9975" stop-color="#91B3F3"/>
</linearGradient>
<linearGradient id="paint4_linear_3_489" x1="36.7242" y1="20.8802" x2="16.5915" y2="40.9446" gradientUnits="userSpaceOnUse">
<stop offset="0.00120948" stop-color="#09369C"/>
<stop offset="0.9975" stop-color="#91B3F3"/>
</linearGradient>
<linearGradient id="paint5_linear_3_489" x1="11.558" y1="36.8164" x2="44.8816" y2="23.7873" gradientUnits="userSpaceOnUse">
<stop offset="0.00120948" stop-color="#09369C"/>
<stop offset="0.9975" stop-color="#91B3F3"/>
</linearGradient>
<linearGradient id="paint6_linear_3_489" x1="12.7687" y1="39.9125" x2="46.0922" y2="26.8832" gradientUnits="userSpaceOnUse">
<stop offset="0.00120948" stop-color="#09369C"/>
<stop offset="0.9975" stop-color="#91B3F3"/>
</linearGradient>
<linearGradient id="paint7_linear_3_489" x1="35.1023" y1="28.9546" x2="24.6617" y2="39.3598" gradientUnits="userSpaceOnUse">
<stop offset="0.00120948" stop-color="#09369C"/>
<stop offset="0.9975" stop-color="#91B3F3"/>
</linearGradient>
<linearGradient id="paint8_linear_3_489" x1="33.1737" y1="46.2241" x2="21.9846" y2="15.419" gradientUnits="userSpaceOnUse">
<stop offset="0.00120948" stop-color="#09369C"/>
<stop offset="0.9975" stop-color="#91B3F3"/>
</linearGradient>
<linearGradient id="paint9_linear_3_489" x1="18.082" y1="32.9298" x2="28.5227" y2="22.5245" gradientUnits="userSpaceOnUse">
<stop offset="0.00120948" stop-color="#09369C"/>
<stop offset="0.9975" stop-color="#91B3F3"/>
</linearGradient>
<linearGradient id="paint10_linear_3_489" x1="20.0102" y1="15.6598" x2="31.1994" y2="46.4653" gradientUnits="userSpaceOnUse">
<stop offset="0.00120948" stop-color="#09369C"/>
<stop offset="0.9975" stop-color="#91B3F3"/>
</linearGradient>
</defs>
</svg>
