<svg width="34" height="34" viewBox="0 0 34 34" fill="none" xmlns="http://www.w3.org/2000/svg">
<path d="M0.842285 6.87273C0.842285 3.07702 3.91931 0 7.71501 0H27.1275C30.9232 0 34.0002 3.07702 34.0002 6.87273V26.2852C34.0002 30.0809 30.9232 33.1579 27.1275 33.1579H7.71501C3.91931 33.1579 0.842285 30.0809 0.842285 26.2852V6.87273Z" fill="#CEDDE6"/>
<g filter="url(#filter0_i_3_304)">
<path d="M17.4084 25.6489C22.4244 25.6489 26.4907 21.5826 26.4907 16.5666C26.4907 11.5506 22.4244 7.48438 17.4084 7.48438C12.3924 7.48438 8.32617 11.5506 8.32617 16.5666C8.32617 21.5826 12.3924 25.6489 17.4084 25.6489Z" fill="#09369C"/>
</g>
<g filter="url(#filter1_i_3_304)">
<path d="M17.6102 10.8516C13.6901 10.8516 11.6089 13.483 11.6089 16.3477C11.6089 17.68 12.318 19.3382 13.4526 19.8664C13.6244 19.9464 13.7167 19.9118 13.7561 19.7452C13.7865 19.6187 13.9395 19.0018 14.0083 18.7151C14.0303 18.6235 14.0195 18.5449 13.9455 18.4548C13.5699 17.9993 13.2695 17.1623 13.2695 16.382C13.2695 14.3786 14.7863 12.4403 17.3702 12.4403C19.6013 12.4403 21.1634 13.9608 21.1634 16.1353C21.1634 18.5921 19.9226 20.2943 18.3084 20.2943C17.417 20.2943 16.7495 19.5569 16.9636 18.6525C17.2203 17.5731 17.716 16.4085 17.716 15.6288C17.716 14.9316 17.3422 14.3496 16.5671 14.3496C15.6557 14.3496 14.9239 15.2921 14.9239 16.5552C14.9239 17.359 15.1957 17.9032 15.1957 17.9032C15.1957 17.9032 14.2955 21.7094 14.1306 22.4178C13.9481 23.1999 14.0192 24.2986 14.0982 25.0169C14.303 25.0972 14.508 25.1775 14.7198 25.2431C15.0907 24.6401 15.6439 23.6511 15.8489 22.8625C15.9596 22.4374 16.4151 20.7034 16.4151 20.7034C16.711 21.2682 17.5759 21.7464 18.4964 21.7464C21.2354 21.7464 23.2094 19.2275 23.2094 16.0973C23.2094 13.0963 20.761 10.8516 17.6102 10.8516Z" fill="#CEDDE6"/>
</g>
<defs>
<filter id="filter0_i_3_304" x="8.32617" y="7.48438" width="18.1646" height="22.5856" filterUnits="userSpaceOnUse" color-interpolation-filters="sRGB">
<feFlood flood-opacity="0" result="BackgroundImageFix"/>
<feBlend mode="normal" in="SourceGraphic" in2="BackgroundImageFix" result="shape"/>
<feColorMatrix in="SourceAlpha" type="matrix" values="0 0 0 0 0 0 0 0 0 0 0 0 0 0 0 0 0 0 127 0" result="hardAlpha"/>
<feOffset dy="4.42105"/>
<feGaussianBlur stdDeviation="8.28947"/>
<feComposite in2="hardAlpha" operator="arithmetic" k2="-1" k3="1"/>
<feColorMatrix type="matrix" values="0 0 0 0 0 0 0 0 0 0 0 0 0 0 0 0 0 0 0.2 0"/>
<feBlend mode="normal" in2="shape" result="effect1_innerShadow_3_304"/>
</filter>
<filter id="filter1_i_3_304" x="11.6089" y="10.8516" width="11.6006" height="18.8127" filterUnits="userSpaceOnUse" color-interpolation-filters="sRGB">
<feFlood flood-opacity="0" result="BackgroundImageFix"/>
<feBlend mode="normal" in="SourceGraphic" in2="BackgroundImageFix" result="shape"/>
<feColorMatrix in="SourceAlpha" type="matrix" values="0 0 0 0 0 0 0 0 0 0 0 0 0 0 0 0 0 0 127 0" result="hardAlpha"/>
<feOffset dy="4.42105"/>
<feGaussianBlur stdDeviation="2.21053"/>
<feComposite in2="hardAlpha" operator="arithmetic" k2="-1" k3="1"/>
<feColorMatrix type="matrix" values="0 0 0 0 0 0 0 0 0 0 0 0 0 0 0 0 0 0 0.2 0"/>
<feBlend mode="normal" in2="shape" result="effect1_innerShadow_3_304"/>
</filter>
</defs>
</svg>
