<svg width="34" height="34" viewBox="0 0 34 34" fill="none" xmlns="http://www.w3.org/2000/svg">
<path d="M0.210449 6.87273C0.210449 3.07702 3.28747 0 7.08318 0H26.4956C30.2913 0 33.3683 3.07702 33.3683 6.87273V26.2852C33.3683 30.0809 30.2913 33.1579 26.4956 33.1579H7.08318C3.28747 33.1579 0.210449 30.0809 0.210449 26.2852V6.87273Z" fill="#CEDDE6"/>
<g clip-path="url(#clip0_3_306)" filter="url(#filter0_i_3_306)">
<path d="M25.2011 11.8277C24.5879 12.0995 23.9291 12.2831 23.2365 12.3661C23.9511 11.9385 24.4857 11.2655 24.7406 10.4727C24.0692 10.8715 23.3345 11.1522 22.5682 11.3026C22.0529 10.7525 21.3704 10.3878 20.6266 10.2653C19.8829 10.1427 19.1194 10.2692 18.4549 10.625C17.7904 10.9808 17.2619 11.546 16.9515 12.2329C16.6411 12.9199 16.5662 13.6901 16.7384 14.4239C15.378 14.3556 14.0472 14.002 12.8323 13.3861C11.6175 12.7702 10.5457 11.9057 9.68651 10.8488C9.39274 11.3555 9.22382 11.9431 9.22382 12.5688C9.22349 13.1321 9.36221 13.6867 9.62766 14.1836C9.89312 14.6804 10.2771 15.104 10.7455 15.4169C10.2023 15.3996 9.67099 15.2528 9.19591 14.9887V15.0328C9.19586 15.8228 9.46914 16.5885 9.96939 17.2C10.4696 17.8115 11.166 18.2311 11.9404 18.3876C11.4365 18.524 10.9081 18.5441 10.3952 18.4463C10.6137 19.1261 11.0393 19.7206 11.6124 20.1465C12.1855 20.5723 12.8775 20.8084 13.5914 20.8214C12.3795 21.7728 10.8828 22.2889 9.34206 22.2866C9.06914 22.2867 8.79645 22.2707 8.52539 22.2389C10.0893 23.2444 11.9098 23.7781 13.7691 23.776C20.0631 23.776 23.5039 18.5631 23.5039 14.042C23.5039 13.8951 23.5002 13.7468 23.4936 13.5999C24.1628 13.1159 24.7405 12.5166 25.1996 11.83L25.2011 11.8277Z" fill="#09369C"/>
</g>
<defs>
<filter id="filter0_i_3_306" x="7.8374" y="8.20215" width="17.626" height="18.2853" filterUnits="userSpaceOnUse" color-interpolation-filters="sRGB">
<feFlood flood-opacity="0" result="BackgroundImageFix"/>
<feBlend mode="normal" in="SourceGraphic" in2="BackgroundImageFix" result="shape"/>
<feColorMatrix in="SourceAlpha" type="matrix" values="0 0 0 0 0 0 0 0 0 0 0 0 0 0 0 0 0 0 127 0" result="hardAlpha"/>
<feOffset dy="0.659327"/>
<feGaussianBlur stdDeviation="1.23624"/>
<feComposite in2="hardAlpha" operator="arithmetic" k2="-1" k3="1"/>
<feColorMatrix type="matrix" values="0 0 0 0 0 0 0 0 0 0 0 0 0 0 0 0 0 0 0.2 0"/>
<feBlend mode="normal" in2="shape" result="effect1_innerShadow_3_306"/>
</filter>
<clipPath id="clip0_3_306">
<rect width="17.626" height="17.626" fill="white" transform="translate(7.8374 8.20215)"/>
</clipPath>
</defs>
</svg>
